<mxfile host="app.diagrams.net" modified="2021-09-07T13:51:52.138Z" agent="5.0 (Windows NT 10.0; Win64; x64) AppleWebKit/537.36 (KHTML, like Gecko) Chrome/92.0.4515.159 Safari/537.36 Edg/92.0.902.84" etag="VReet0YbBb2CMRh3WtE1" version="15.1.0" type="github">
  <diagram id="BkB9ycuIndA_AHE0xeS9" name="Page-1">
    <mxGraphModel dx="1038" dy="579" grid="1" gridSize="10" guides="1" tooltips="1" connect="1" arrows="1" fold="1" page="1" pageScale="1" pageWidth="850" pageHeight="1100" math="0" shadow="0">
      <root>
        <mxCell id="0" />
        <mxCell id="1" parent="0" />
        <mxCell id="T5xVzwLz-AuNXqmgkRlb-3" value="" style="edgeStyle=orthogonalEdgeStyle;rounded=0;orthogonalLoop=1;jettySize=auto;html=1;" parent="1" source="T5xVzwLz-AuNXqmgkRlb-1" target="T5xVzwLz-AuNXqmgkRlb-2" edge="1">
          <mxGeometry relative="1" as="geometry" />
        </mxCell>
        <mxCell id="T5xVzwLz-AuNXqmgkRlb-1" value="Start" style="ellipse;whiteSpace=wrap;html=1;" parent="1" vertex="1">
          <mxGeometry x="80" y="30" width="120" height="50" as="geometry" />
        </mxCell>
        <mxCell id="T5xVzwLz-AuNXqmgkRlb-5" value="" style="edgeStyle=orthogonalEdgeStyle;rounded=0;orthogonalLoop=1;jettySize=auto;html=1;" parent="1" source="T5xVzwLz-AuNXqmgkRlb-2" target="T5xVzwLz-AuNXqmgkRlb-4" edge="1">
          <mxGeometry relative="1" as="geometry" />
        </mxCell>
        <mxCell id="T5xVzwLz-AuNXqmgkRlb-2" value="Display: Enter Starting Balance in Dollars" style="shape=parallelogram;perimeter=parallelogramPerimeter;whiteSpace=wrap;html=1;fixedSize=1;" parent="1" vertex="1">
          <mxGeometry x="80" y="160" width="120" height="60" as="geometry" />
        </mxCell>
        <mxCell id="T5xVzwLz-AuNXqmgkRlb-7" value="" style="edgeStyle=orthogonalEdgeStyle;rounded=0;orthogonalLoop=1;jettySize=auto;html=1;" parent="1" source="T5xVzwLz-AuNXqmgkRlb-4" target="T5xVzwLz-AuNXqmgkRlb-6" edge="1">
          <mxGeometry relative="1" as="geometry" />
        </mxCell>
        <mxCell id="T5xVzwLz-AuNXqmgkRlb-4" value="User Enters Numbers" style="shape=parallelogram;perimeter=parallelogramPerimeter;whiteSpace=wrap;html=1;fixedSize=1;" parent="1" vertex="1">
          <mxGeometry x="80" y="300" width="120" height="60" as="geometry" />
        </mxCell>
        <mxCell id="T5xVzwLz-AuNXqmgkRlb-8" style="edgeStyle=orthogonalEdgeStyle;rounded=0;orthogonalLoop=1;jettySize=auto;html=1;" parent="1" source="T5xVzwLz-AuNXqmgkRlb-6" edge="1">
          <mxGeometry relative="1" as="geometry">
            <mxPoint x="210" y="50" as="targetPoint" />
            <Array as="points">
              <mxPoint x="270" y="470" />
              <mxPoint x="270" y="50" />
            </Array>
          </mxGeometry>
        </mxCell>
        <mxCell id="T5xVzwLz-AuNXqmgkRlb-9" value="No" style="edgeLabel;html=1;align=center;verticalAlign=middle;resizable=0;points=[];" parent="T5xVzwLz-AuNXqmgkRlb-8" vertex="1" connectable="0">
          <mxGeometry x="-0.0379" y="-1" relative="1" as="geometry">
            <mxPoint as="offset" />
          </mxGeometry>
        </mxCell>
        <mxCell id="T5xVzwLz-AuNXqmgkRlb-11" value="" style="edgeStyle=orthogonalEdgeStyle;rounded=0;orthogonalLoop=1;jettySize=auto;html=1;" parent="1" source="T5xVzwLz-AuNXqmgkRlb-6" target="T5xVzwLz-AuNXqmgkRlb-10" edge="1">
          <mxGeometry relative="1" as="geometry" />
        </mxCell>
        <mxCell id="T5xVzwLz-AuNXqmgkRlb-12" value="Yes" style="edgeLabel;html=1;align=center;verticalAlign=middle;resizable=0;points=[];" parent="T5xVzwLz-AuNXqmgkRlb-11" vertex="1" connectable="0">
          <mxGeometry x="-0.2667" y="-1" relative="1" as="geometry">
            <mxPoint as="offset" />
          </mxGeometry>
        </mxCell>
        <mxCell id="T5xVzwLz-AuNXqmgkRlb-6" value="Is it a number?" style="rhombus;whiteSpace=wrap;html=1;" parent="1" vertex="1">
          <mxGeometry x="100" y="430" width="80" height="80" as="geometry" />
        </mxCell>
        <mxCell id="T5xVzwLz-AuNXqmgkRlb-14" value="" style="edgeStyle=orthogonalEdgeStyle;rounded=0;orthogonalLoop=1;jettySize=auto;html=1;" parent="1" source="T5xVzwLz-AuNXqmgkRlb-10" target="T5xVzwLz-AuNXqmgkRlb-13" edge="1">
          <mxGeometry relative="1" as="geometry" />
        </mxCell>
        <mxCell id="T5xVzwLz-AuNXqmgkRlb-10" value="Display: Enter Yearly Contribution in Dollars" style="shape=parallelogram;perimeter=parallelogramPerimeter;whiteSpace=wrap;html=1;fixedSize=1;" parent="1" vertex="1">
          <mxGeometry x="80" y="600" width="120" height="60" as="geometry" />
        </mxCell>
        <mxCell id="T5xVzwLz-AuNXqmgkRlb-16" value="" style="edgeStyle=orthogonalEdgeStyle;rounded=0;orthogonalLoop=1;jettySize=auto;html=1;" parent="1" source="T5xVzwLz-AuNXqmgkRlb-13" target="T5xVzwLz-AuNXqmgkRlb-15" edge="1">
          <mxGeometry relative="1" as="geometry" />
        </mxCell>
        <mxCell id="T5xVzwLz-AuNXqmgkRlb-13" value="User Enters in a number&amp;nbsp;" style="shape=parallelogram;perimeter=parallelogramPerimeter;whiteSpace=wrap;html=1;fixedSize=1;" parent="1" vertex="1">
          <mxGeometry x="80" y="740" width="120" height="60" as="geometry" />
        </mxCell>
        <mxCell id="T5xVzwLz-AuNXqmgkRlb-17" style="edgeStyle=orthogonalEdgeStyle;rounded=0;orthogonalLoop=1;jettySize=auto;html=1;entryX=1;entryY=0.5;entryDx=0;entryDy=0;" parent="1" source="T5xVzwLz-AuNXqmgkRlb-15" target="T5xVzwLz-AuNXqmgkRlb-10" edge="1">
          <mxGeometry relative="1" as="geometry">
            <Array as="points">
              <mxPoint x="260" y="910" />
              <mxPoint x="260" y="630" />
            </Array>
          </mxGeometry>
        </mxCell>
        <mxCell id="T5xVzwLz-AuNXqmgkRlb-18" value="No" style="edgeLabel;html=1;align=center;verticalAlign=middle;resizable=0;points=[];" parent="T5xVzwLz-AuNXqmgkRlb-17" vertex="1" connectable="0">
          <mxGeometry x="-0.1488" y="-3" relative="1" as="geometry">
            <mxPoint as="offset" />
          </mxGeometry>
        </mxCell>
        <mxCell id="T5xVzwLz-AuNXqmgkRlb-20" value="" style="edgeStyle=orthogonalEdgeStyle;rounded=0;orthogonalLoop=1;jettySize=auto;html=1;" parent="1" source="T5xVzwLz-AuNXqmgkRlb-15" target="T5xVzwLz-AuNXqmgkRlb-19" edge="1">
          <mxGeometry relative="1" as="geometry" />
        </mxCell>
        <mxCell id="T5xVzwLz-AuNXqmgkRlb-21" value="Yes" style="edgeLabel;html=1;align=center;verticalAlign=middle;resizable=0;points=[];" parent="T5xVzwLz-AuNXqmgkRlb-20" vertex="1" connectable="0">
          <mxGeometry x="0.2667" y="-3" relative="1" as="geometry">
            <mxPoint as="offset" />
          </mxGeometry>
        </mxCell>
        <mxCell id="T5xVzwLz-AuNXqmgkRlb-15" value="Is it a Number?" style="rhombus;whiteSpace=wrap;html=1;" parent="1" vertex="1">
          <mxGeometry x="100" y="870" width="80" height="80" as="geometry" />
        </mxCell>
        <mxCell id="T5xVzwLz-AuNXqmgkRlb-23" value="" style="edgeStyle=orthogonalEdgeStyle;rounded=0;orthogonalLoop=1;jettySize=auto;html=1;" parent="1" source="T5xVzwLz-AuNXqmgkRlb-19" target="T5xVzwLz-AuNXqmgkRlb-22" edge="1">
          <mxGeometry relative="1" as="geometry" />
        </mxCell>
        <mxCell id="T5xVzwLz-AuNXqmgkRlb-19" value="Display: Enter Average Return on Investment as %" style="shape=parallelogram;perimeter=parallelogramPerimeter;whiteSpace=wrap;html=1;fixedSize=1;" parent="1" vertex="1">
          <mxGeometry x="80" y="1040" width="120" height="60" as="geometry" />
        </mxCell>
        <mxCell id="T5xVzwLz-AuNXqmgkRlb-25" value="" style="edgeStyle=orthogonalEdgeStyle;rounded=0;orthogonalLoop=1;jettySize=auto;html=1;" parent="1" source="T5xVzwLz-AuNXqmgkRlb-22" target="T5xVzwLz-AuNXqmgkRlb-24" edge="1">
          <mxGeometry relative="1" as="geometry" />
        </mxCell>
        <mxCell id="T5xVzwLz-AuNXqmgkRlb-22" value="User enters a number as a %" style="shape=parallelogram;perimeter=parallelogramPerimeter;whiteSpace=wrap;html=1;fixedSize=1;" parent="1" vertex="1">
          <mxGeometry x="80" y="1180" width="120" height="60" as="geometry" />
        </mxCell>
        <mxCell id="T5xVzwLz-AuNXqmgkRlb-26" style="edgeStyle=orthogonalEdgeStyle;rounded=0;orthogonalLoop=1;jettySize=auto;html=1;entryX=1;entryY=0.5;entryDx=0;entryDy=0;" parent="1" source="T5xVzwLz-AuNXqmgkRlb-24" target="T5xVzwLz-AuNXqmgkRlb-19" edge="1">
          <mxGeometry relative="1" as="geometry">
            <Array as="points">
              <mxPoint x="250" y="1350" />
              <mxPoint x="250" y="1070" />
            </Array>
          </mxGeometry>
        </mxCell>
        <mxCell id="T5xVzwLz-AuNXqmgkRlb-27" value="No" style="edgeLabel;html=1;align=center;verticalAlign=middle;resizable=0;points=[];" parent="T5xVzwLz-AuNXqmgkRlb-26" vertex="1" connectable="0">
          <mxGeometry x="-0.1171" relative="1" as="geometry">
            <mxPoint as="offset" />
          </mxGeometry>
        </mxCell>
        <mxCell id="T5xVzwLz-AuNXqmgkRlb-29" value="" style="edgeStyle=orthogonalEdgeStyle;rounded=0;orthogonalLoop=1;jettySize=auto;html=1;" parent="1" source="T5xVzwLz-AuNXqmgkRlb-24" target="T5xVzwLz-AuNXqmgkRlb-28" edge="1">
          <mxGeometry relative="1" as="geometry" />
        </mxCell>
        <mxCell id="T5xVzwLz-AuNXqmgkRlb-30" value="Yes" style="edgeLabel;html=1;align=center;verticalAlign=middle;resizable=0;points=[];" parent="T5xVzwLz-AuNXqmgkRlb-29" vertex="1" connectable="0">
          <mxGeometry x="0.2311" relative="1" as="geometry">
            <mxPoint as="offset" />
          </mxGeometry>
        </mxCell>
        <mxCell id="T5xVzwLz-AuNXqmgkRlb-24" value="Is&amp;nbsp; it a %?" style="rhombus;whiteSpace=wrap;html=1;" parent="1" vertex="1">
          <mxGeometry x="100" y="1310" width="80" height="80" as="geometry" />
        </mxCell>
        <mxCell id="T5xVzwLz-AuNXqmgkRlb-32" value="" style="edgeStyle=orthogonalEdgeStyle;rounded=0;orthogonalLoop=1;jettySize=auto;html=1;" parent="1" source="T5xVzwLz-AuNXqmgkRlb-28" target="T5xVzwLz-AuNXqmgkRlb-31" edge="1">
          <mxGeometry relative="1" as="geometry" />
        </mxCell>
        <mxCell id="T5xVzwLz-AuNXqmgkRlb-28" value="Display: Enter Number of Years for the Report" style="shape=parallelogram;perimeter=parallelogramPerimeter;whiteSpace=wrap;html=1;fixedSize=1;" parent="1" vertex="1">
          <mxGeometry x="80" y="1480" width="120" height="60" as="geometry" />
        </mxCell>
        <mxCell id="T5xVzwLz-AuNXqmgkRlb-35" value="" style="edgeStyle=orthogonalEdgeStyle;rounded=0;orthogonalLoop=1;jettySize=auto;html=1;" parent="1" source="T5xVzwLz-AuNXqmgkRlb-31" target="T5xVzwLz-AuNXqmgkRlb-34" edge="1">
          <mxGeometry relative="1" as="geometry" />
        </mxCell>
        <mxCell id="T5xVzwLz-AuNXqmgkRlb-31" value="User Enters a Number of Years" style="shape=parallelogram;perimeter=parallelogramPerimeter;whiteSpace=wrap;html=1;fixedSize=1;" parent="1" vertex="1">
          <mxGeometry x="80" y="1620" width="120" height="60" as="geometry" />
        </mxCell>
        <mxCell id="T5xVzwLz-AuNXqmgkRlb-36" style="edgeStyle=orthogonalEdgeStyle;rounded=0;orthogonalLoop=1;jettySize=auto;html=1;entryX=1;entryY=0.5;entryDx=0;entryDy=0;" parent="1" source="T5xVzwLz-AuNXqmgkRlb-34" target="T5xVzwLz-AuNXqmgkRlb-28" edge="1">
          <mxGeometry relative="1" as="geometry">
            <Array as="points">
              <mxPoint x="290" y="1790" />
              <mxPoint x="290" y="1510" />
            </Array>
          </mxGeometry>
        </mxCell>
        <mxCell id="T5xVzwLz-AuNXqmgkRlb-37" value="No" style="edgeLabel;html=1;align=center;verticalAlign=middle;resizable=0;points=[];" parent="T5xVzwLz-AuNXqmgkRlb-36" vertex="1" connectable="0">
          <mxGeometry x="-0.0767" relative="1" as="geometry">
            <mxPoint as="offset" />
          </mxGeometry>
        </mxCell>
        <mxCell id="T5xVzwLz-AuNXqmgkRlb-39" value="" style="edgeStyle=orthogonalEdgeStyle;rounded=0;orthogonalLoop=1;jettySize=auto;html=1;" parent="1" source="T5xVzwLz-AuNXqmgkRlb-34" target="T5xVzwLz-AuNXqmgkRlb-38" edge="1">
          <mxGeometry relative="1" as="geometry" />
        </mxCell>
        <mxCell id="T5xVzwLz-AuNXqmgkRlb-40" value="Yes" style="edgeLabel;html=1;align=center;verticalAlign=middle;resizable=0;points=[];" parent="T5xVzwLz-AuNXqmgkRlb-39" vertex="1" connectable="0">
          <mxGeometry x="0.2622" y="-2" relative="1" as="geometry">
            <mxPoint as="offset" />
          </mxGeometry>
        </mxCell>
        <mxCell id="T5xVzwLz-AuNXqmgkRlb-34" value="Is it a Number?" style="rhombus;whiteSpace=wrap;html=1;" parent="1" vertex="1">
          <mxGeometry x="100" y="1750" width="80" height="80" as="geometry" />
        </mxCell>
        <mxCell id="2rgCRvKqV6s3QyemkkNp-2" style="edgeStyle=orthogonalEdgeStyle;rounded=0;orthogonalLoop=1;jettySize=auto;html=1;entryX=0.5;entryY=0;entryDx=0;entryDy=0;" edge="1" parent="1" source="T5xVzwLz-AuNXqmgkRlb-38" target="2rgCRvKqV6s3QyemkkNp-1">
          <mxGeometry relative="1" as="geometry" />
        </mxCell>
        <mxCell id="T5xVzwLz-AuNXqmgkRlb-38" value="Calculate for the amount years stated" style="whiteSpace=wrap;html=1;" parent="1" vertex="1">
          <mxGeometry x="80" y="1920" width="120" height="60" as="geometry" />
        </mxCell>
        <mxCell id="y89YNBYtUDCUDItiI_Ld-1" value="Display Calculations" style="shape=parallelogram;perimeter=parallelogramPerimeter;whiteSpace=wrap;html=1;fixedSize=1;" parent="1" vertex="1">
          <mxGeometry x="80" y="2230" width="120" height="70" as="geometry" />
        </mxCell>
        <mxCell id="2rgCRvKqV6s3QyemkkNp-3" style="edgeStyle=orthogonalEdgeStyle;rounded=0;orthogonalLoop=1;jettySize=auto;html=1;entryX=0.5;entryY=0;entryDx=0;entryDy=0;" edge="1" parent="1" source="2rgCRvKqV6s3QyemkkNp-1" target="y89YNBYtUDCUDItiI_Ld-1">
          <mxGeometry relative="1" as="geometry">
            <Array as="points">
              <mxPoint x="140" y="2170" />
              <mxPoint x="140" y="2170" />
            </Array>
          </mxGeometry>
        </mxCell>
        <mxCell id="2rgCRvKqV6s3QyemkkNp-4" value="Yes" style="edgeLabel;html=1;align=center;verticalAlign=middle;resizable=0;points=[];" vertex="1" connectable="0" parent="2rgCRvKqV6s3QyemkkNp-3">
          <mxGeometry x="0.22" y="-3" relative="1" as="geometry">
            <mxPoint as="offset" />
          </mxGeometry>
        </mxCell>
        <mxCell id="2rgCRvKqV6s3QyemkkNp-5" style="edgeStyle=orthogonalEdgeStyle;rounded=0;orthogonalLoop=1;jettySize=auto;html=1;entryX=1;entryY=0.5;entryDx=0;entryDy=0;" edge="1" parent="1" source="2rgCRvKqV6s3QyemkkNp-1" target="T5xVzwLz-AuNXqmgkRlb-38">
          <mxGeometry relative="1" as="geometry">
            <Array as="points">
              <mxPoint x="300" y="2090" />
              <mxPoint x="300" y="1950" />
            </Array>
          </mxGeometry>
        </mxCell>
        <mxCell id="2rgCRvKqV6s3QyemkkNp-6" value="No" style="edgeLabel;html=1;align=center;verticalAlign=middle;resizable=0;points=[];" vertex="1" connectable="0" parent="2rgCRvKqV6s3QyemkkNp-5">
          <mxGeometry x="-0.1633" y="3" relative="1" as="geometry">
            <mxPoint as="offset" />
          </mxGeometry>
        </mxCell>
        <mxCell id="2rgCRvKqV6s3QyemkkNp-1" value="Are all the years calculated?" style="rhombus;whiteSpace=wrap;html=1;" vertex="1" parent="1">
          <mxGeometry x="100" y="2050" width="80" height="80" as="geometry" />
        </mxCell>
      </root>
    </mxGraphModel>
  </diagram>
</mxfile>
